<svg xmlns="http://www.w3.org/2000/svg" width="56" height="56" fill="none"><path fill="url(#a)" d="M19.373 0h32.252A4.377 4.377 0 0 1 56 4.375v32.252a8.75 8.75 0 0 1-2.564 6.187L42.814 53.436A8.75 8.75 0 0 1 36.627 56H4.375A4.377 4.377 0 0 1 0 51.625V19.373c0-2.32.923-4.546 2.564-6.187L13.186 2.564A8.75 8.75 0 0 1 19.372 0"/><path fill="#000" d="M45.5 10.5H5.25v40.25H45.5z"/><path fill="#fff" d="M10.43 18.804a.76.76 0 0 0 .088-.368V14h1.43v4.541c0 .376-.079.713-.24 1.002a1.73 1.73 0 0 1-.687.674q-.446.241-1.015.24H8.75V19.14h1.068a.76.76 0 0 0 .367-.087.6.6 0 0 0 .245-.25M8.75 44.625h14v2.625h-14zM14.52 17.824h3.041v-1.208h-3.04v-1.37h3.355V14H13.13v6.457h4.84v-1.242H14.52zM20.405 15.282h-1.916V14h5.25v1.282H21.83v5.175h-1.426z"/><path fill="#fff" fill-rule="evenodd" d="M13.068 25.633a2 2 0 0 0-.35-.14 1.4 1.4 0 0 0 .823-.621q.201-.334.2-.762.001-.491-.266-.879a1.77 1.77 0 0 0-.752-.604 2.7 2.7 0 0 0-1.103-.218H8.75v6.457h2.927q.651.001 1.16-.227a1.86 1.86 0 0 0 .791-.635 1.6 1.6 0 0 0 .28-.927q0-.479-.223-.858a1.53 1.53 0 0 0-.617-.586m-2.931-2.14h1.269c.175 0 .332.031.463.097q.204.093.315.271a.75.75 0 0 1 .114.411c0 .158-.04.307-.114.43a.73.73 0 0 1-.315.28q-.202.099-.463.1h-1.27zm2.187 3.912a.8.8 0 0 1-.345.284q-.223.1-.516.1h-1.326v-1.657h1.326c.192 0 .358.035.511.105q.225.106.35.297a.8.8 0 0 1 .123.442c0 .166-.04.306-.123.429M19.653 25.532q-.294.468-.832.727l-.004-.005q-.104.046-.215.088l1.475 2.524h-1.632l-1.308-2.354h-.932v2.354h-1.43V22.41H17.6q.702-.001 1.233.253c.355.171.63.407.823.718.192.31.289.656.289 1.067q0 .619-.294 1.085m-2.157-1.96h-1.287v1.79h1.287q.299.001.52-.11a.76.76 0 0 0 .342-.31.94.94 0 0 0 .118-.477q0-.27-.118-.473a.8.8 0 0 0-.342-.31 1.14 1.14 0 0 0-.52-.11M22.523 22.413l-2.306 6.458h1.452l.455-1.427h2.393l.49 1.427h1.427l-2.363-6.458zm-.075 3.95.744-2.279.087-.415.088.415.792 2.28z" clip-rule="evenodd"/><path fill="#fff" d="M27.081 22.413h1.475v6.458H27.08zM33.937 26.78l-2.778-4.367h-1.392v6.458h1.304V24.5l2.765 4.37h1.409v-6.457h-1.308zM40.307 25.384q.376.267.586.673h-.004q.21.407.21.884-.001.585-.31 1.05-.309.464-.867.726-.56.263-1.278.263-.716-.002-1.268-.258a2.1 2.1 0 0 1-.871-.718q-.317-.465-.324-1.067h1.43c0 .166.049.315.137.442a.84.84 0 0 0 .371.293c.158.07.346.105.543.105s.372-.03.516-.092a.8.8 0 0 0 .341-.263.65.65 0 0 0 .123-.389.64.64 0 0 0-.166-.446.9.9 0 0 0-.451-.25l-1.164-.24a2.1 2.1 0 0 1-.8-.346 1.75 1.75 0 0 1-.534-.626 1.8 1.8 0 0 1-.188-.84q-.001-.575.293-1.028c.192-.302.468-.533.818-.704s.744-.254 1.199-.254q.682.001 1.207.245.532.244.827.678.297.434.31.998h-1.43q-.002-.21-.114-.372a.73.73 0 0 0-.315-.254 1.15 1.15 0 0 0-.472-.092q-.261.001-.464.088a.7.7 0 0 0-.31.24.6.6 0 0 0-.11.364q.002.229.153.385c.1.105.24.175.412.214l1.098.227q.485.094.866.364"/><defs><linearGradient id="a" x1=".875" x2="54.906" y1="55.125" y2="1.094" gradientUnits="userSpaceOnUse"><stop stop-color="#FF9419"/><stop offset=".43" stop-color="#FF021D"/><stop offset=".99" stop-color="#E600FF"/></linearGradient></defs></svg>